<svg id="user" xmlns="http://www.w3.org/2000/svg" viewBox="0 0 28.07 28.07"><defs><style>.cls-1{fill:#f6f6f6;}</style></defs><path class="cls-1" d="M11,39a.2.2,0,0,0,0,0c0-.56,0-1.13,0-1.69a4.07,4.07,0,0,1,.36-1.46A8.09,8.09,0,0,1,13,33.38a12.41,12.41,0,0,1,3.4-2.53,16.18,16.18,0,0,1,3.43-1.31,20.34,20.34,0,0,1,2.3-.46,22,22,0,0,1,3.53-.17,21.6,21.6,0,0,1,3,.29,16.59,16.59,0,0,1,5.58,2,12,12,0,0,1,3.09,2.53A7.49,7.49,0,0,1,38.74,36a4.53,4.53,0,0,1,.3,1.59c0,.44,0,.88,0,1.33,0,.1,0,.1-.1.1H11Z" transform="translate(-10.96 -10.96)"/><path class="cls-1" d="M32.8,18.77A7.8,7.8,0,1,1,25,11,7.8,7.8,0,0,1,32.8,18.77Z" transform="translate(-10.96 -10.96)"/></svg>